<svg t="1710216832833" class="icon" viewBox="0 0 1024 1024" version="1.1" xmlns="http://www.w3.org/2000/svg" p-id="11371" width="200" height="200"><path d="M750.250667 382.72l84.650666 44.032v163.242667l6.314667 8.32 48.128 62.378666V917.333333H938.666667v-278.186666l-6.314667-8.106667-48.085333-62.378667V394.026667l-12.458667-8.234667-121.6-65.152-249.088 92.416v495.36h249.130667V382.634667zM263.424 247.168l-47.573333 14.506667V348.586667l47.530666-11.008V247.210667z m445.909333 152.661333v72.106667l-41.173333 9.514667V412.458667c13.44-4.010667 27.008-8.234667 41.173333-12.586667m-144.128 232.533333v61.354667h-30.037333v-59.050667l30.037333-2.304m66.432-4.906666v66.261333h-34.944v-63.701333l34.944-2.56m77.696-5.888v72.106666h-41.173333v-68.992l41.173333-3.114666m-144.128-83.370667v61.312c-10.24 1.109333-20.309333 2.261333-30.037333 3.413333v-59.136l30.037333-5.546666m66.432-12.629334v66.218667l-34.858666 4.010667v-63.616c11.306667-2.261333 22.912-4.437333 34.858666-6.613334m77.696-14.805333v72.106667l-41.173333 4.693333v-69.034667c13.44-2.432 27.008-5.205333 41.173333-7.765333m-144.128-66.986667v61.397334c-10.24 2.304-20.309333 4.522667-30.037333 6.912v-59.136l30.037333-9.173334m66.432-20.224v66.389334c-11.946667 2.645333-23.552 5.333333-34.858666 7.978666v-63.744l34.858666-10.624M369.322667 214.869333c-19.2 5.930667-37.888 11.605333-56.021334 17.109334v94.208l56.021334-12.928V214.869333z m-196.608 317.269334c-13.994667 0.981333-27.605333 1.877333-40.917334 3.072v80.469333h40.874667l0.042667-83.541333m90.666666-6.869334l-47.530666 3.626667v86.741333h47.530666V525.226667z m105.941334-7.978666c-19.2 1.450667-37.888 2.986667-56.021334 4.266666v94.122667h56.021334v-98.389333zM172.714667 403.498667l-40.917334 7.765333v80.554667l40.917334-4.608V403.498667z m90.666666-17.194667l-47.530666 9.045333V482.133333l47.530666-5.418666V386.304z m105.941334-20.053333l-56.021334 10.581333v94.122667l56.021334-6.485334V366.208zM172.714667 274.773333l-40.917334 12.458667v80.597333l40.917334-9.386666V274.773333zM425.088 106.666667l161.365333 97.792 12.586667 8.32v147.498666h-49.493333V245.546667L425.088 170.794667v737.664H85.333333V232.789333L425.088 106.666667z" fill="#0095FF" p-id="11372"></path></svg>
