<?xml version="1.0" standalone="no"?><!DOCTYPE svg PUBLIC "-//W3C//DTD SVG 1.1//EN" "http://www.w3.org/Graphics/SVG/1.1/DTD/svg11.dtd"><svg t="1700125671823" class="icon" viewBox="0 0 1024 1024" version="1.1" xmlns="http://www.w3.org/2000/svg" p-id="5392" xmlns:xlink="http://www.w3.org/1999/xlink" width="200" height="200"><path d="M174.717585 717.708075l0.173887-0.096603-0.173887 0.096603zM639.903396 402.219472l-0.888754-309.132076c-0.038642-7.148679-2.357132-10.297962-10.278642-6.066717 2.415094-1.294491-206.152453 119.015849-466.190491 269.196076-10.375245 5.912151-20.750491 23.725887-20.595924 35.434264l0.888755 309.209358c0 11.051472 5.177962 8.887547 12.597132 4.617661l464.277736-268.056151c10.819623-6.549736 20.22883-22.77917 20.190188-35.202415z m-42.660226 12.500528L197.728604 645.525736a13.852981 13.852981 0 0 1-6.530415 1.738868 12.944906 12.944906 0 0 1-13.060831-13.080151l-0.77283-242.320906c0-4.424453 4.424453-10.375245 7.110038-12.693736L584.18234 148.383396a13.215396 13.215396 0 0 1 13.06083 0c4.057358 2.318491 6.530415 6.530415 6.530415 11.341283l0.579623 242.320906c0 4.424453-4.231245 10.375245-7.110038 12.674415zM945.113358 641.449057L483.695094 907.843623c-17.292075 9.98883-44.147925 9.892226-61.169509 0L159.879245 755.171019l-0.057962 54.387924c0 1.391094 1.642264 3.767547 5.37117 5.854189l267.457207 155.532076c10.838943 6.317887 29.908528 6.298566 40.863397-0.019321l466.016603-269.176755c3.941434-2.202566 5.64166-4.636981 5.641661-6.086038l-0.057963-54.233358zM168.998642 721.011925l0.463698-0.25117a73.998491 73.998491 0 0 0-0.463698 0.25117zM174.891472 717.611472zM173.345811 718.519547l1.371774-0.811472-1.371774 0.811472zM157.792604 335.582189l0.714868-0.405736-0.618264 0.347773-0.096604 0.057963zM152.421434 338.69283zM156.015094 336.606189l0.695548-0.386415a13.910943 13.910943 0 0 1-0.154567 0.077283l-0.540981 0.309132z" p-id="5393" fill="#1296db"></path><path d="M152.402113 338.69283a198.540075 198.540075 0 0 1 0.618264-0.347773l0.057963-0.038642 2.936754-1.700226-1.758188 1.024 2.31849-1.352453 0.444378-0.25117-0.309132 0.193208 1.081962-0.637585-0.579623 0.347773c0.193208-0.135245 0.444377-0.270491 0.676227-0.386415l0.676226-0.386415h-0.057962l455.390188-262.955472-40.419018-23.513358c-2.028679-1.159245-5.989434 0.540981-8.095397 1.777509L99.463245 319.507321c-11.01283 6.279245-20.634566 22.875774-20.634566 35.550188l0.888755 309.093434c0 4.675623 1.313811 7.110038 2.511698 7.824906l40.341736 23.474717L121.720755 391.747623c-0.038642-20.132226 14.162113-43.51034 30.681358-53.054793z m6.800906-3.922113c0.135245-0.077283 0.115925-0.077283 0 0zM174.891472 717.611472l-1.970717 1.159245 0.425056-0.25117-3.419773 1.951396-0.463698 0.289812 0.115924-0.077283-0.656906 0.386415 0.077284-0.057962-1.043321 0.618264-2.241208 1.29449-0.695547 0.386415c-6.607698 4.096-7.090717 7.535094 0.270491 11.669736l267.28332 155.358189c11.747019 6.762264 30.816604 5.950792 40.998642 0 403.398038-233.491321 467.755472-269.331321 470.325132-272.422642 0.115925-0.115925 0.077283-0.193208 0.193207-0.328452 0.656906-0.888755 1.062642-1.719547 1.081963-2.318491v-0.038642c0-1.294491-1.449057-3.651623-5.467774-5.989434l-267.283321-155.338867c-11.128755-6.453132-29.908528-6.375849-40.96 0.01932L174.910792 717.611472z m456.607396-148.112906l-29.715321 17.272755a10.085434 10.085434 0 1 1-10.124075-17.427321l29.71532-17.272755a10.085434 10.085434 0 0 1 10.124076 17.427321z m7.43849 27.338868l29.734642-17.272755a10.085434 10.085434 0 0 1 10.124075 17.427321l-29.753962 17.272755a10.085434 10.085434 0 1 1-10.104755-17.427321z m-34.06249 43.104604l-29.734642 17.292075a10.085434 10.085434 0 1 1-10.104754-17.427321l29.71532-17.272754a10.085434 10.085434 0 0 1 10.124076 17.42732z m-60.493283-98.072151l29.715321-17.292076a10.085434 10.085434 0 1 1 10.124075 17.427321l-29.734641 17.292076a10.085434 10.085434 0 1 1-10.104755-17.427321z m3.091321 53.170717a10.104755 10.104755 0 0 1 10.104754 17.427321l-29.696 17.292075a10.085434 10.085434 0 1 1-10.124075-17.427321l29.715321-17.292075z m-77.012529-10.201359l29.753963-17.272754a10.046792 10.046792 0 1 1 10.104754 17.408l-29.734641 17.292075a10.085434 10.085434 0 1 1-10.124076-17.427321z m-73.901886 42.969359l29.734641-17.272755a10.085434 10.085434 0 1 1 10.124076 17.408l-29.753963 17.292076a10.085434 10.085434 0 1 1-10.104754-17.427321zM322.656604 670.816604l29.734641-17.292076a10.085434 10.085434 0 0 1 10.124076 17.427321l-29.753963 17.292076a10.085434 10.085434 0 1 1-10.104754-17.427321z m-150.759849 48.553056l-0.830793 0.483019 0.830793-0.483019z m-4.752906 2.743548z m91.715623 9.100075a10.085434 10.085434 0 1 1-10.104755-17.427321l29.715321-17.272754a10.085434 10.085434 0 1 1 10.124075 17.408l-29.734641 17.292075z m47.297207 27.493434a10.085434 10.085434 0 1 1-10.124075-17.427321l29.715321-17.292075a10.085434 10.085434 0 0 1 10.124075 17.427321l-29.715321 17.292075z m76.993208 10.201358l-29.715321 17.272755a10.085434 10.085434 0 1 1-10.124075-17.427321l29.71532-17.272754a10.085434 10.085434 0 1 1 10.124076 17.42732z m-3.091321-53.190037a10.085434 10.085434 0 1 1-10.124075-17.427321l29.71532-17.272755a10.085434 10.085434 0 1 1 10.124076 17.408l-29.715321 17.292076z m77.012528 10.201358l-29.753962 17.292076a10.085434 10.085434 0 1 1-10.104755-17.427321l29.734642-17.272755a10.085434 10.085434 0 1 1 10.124075 17.408z m-3.09132-53.170717a10.085434 10.085434 0 1 1-10.124076-17.427321l29.696-17.272754a10.085434 10.085434 0 1 1 10.124076 17.408l-29.696 17.292075z m33.482868 23.841812a10.085434 10.085434 0 0 1 3.670943-13.775699l29.715321-17.292075a10.085434 10.085434 0 1 1 10.124075 17.427321l-29.734641 17.292075a10.085434 10.085434 0 0 1-13.775698-3.651622z m221.995471 22.817811l-124.618868 71.911849a9.080755 9.080755 0 0 1-9.138717 0l-63.140226-36.767396a9.235321 9.235321 0 0 1-4.579019-7.882868c0-3.284528 1.835472-6.221283 4.579019-7.863547l124.618868-71.911849a9.080755 9.080755 0 0 1 9.138717 0l63.140226 36.593509a9.525132 9.525132 0 0 1 4.579019 8.056755c0 3.284528-1.835472 6.221283-4.579019 7.863547z m33.115774-182.812981a10.085434 10.085434 0 1 1 10.124075 17.427321l-29.734641 17.292075a10.085434 10.085434 0 1 1-10.124076-17.427321l29.734642-17.292075z m-47.297208-27.474113a10.085434 10.085434 0 0 1 10.124076 17.42732l-29.715321 17.272755a10.085434 10.085434 0 1 1-10.104755-17.427321l29.696-17.272754z m-33.482868-23.861133c2.801509 4.830189 1.159245 10.993509-3.670943 13.795019l-29.715321 17.272755a10.085434 10.085434 0 1 1-10.124075-17.427321l29.734641-17.272754a10.104755 10.104755 0 0 1 13.775698 3.632301z" p-id="5394" fill="#1296db"></path></svg>