<?xml version="1.0" standalone="no"?><!DOCTYPE svg PUBLIC "-//W3C//DTD SVG 1.1//EN" "http://www.w3.org/Graphics/SVG/1.1/DTD/svg11.dtd"><svg t="1700125291195" class="icon" viewBox="0 0 1356 1024" version="1.1" xmlns="http://www.w3.org/2000/svg" p-id="2310" xmlns:xlink="http://www.w3.org/1999/xlink" width="264.84375" height="200"><path d="M0 389.700161h1353.843886v242.365139H0z" fill="#4467AE" p-id="2311"></path><path d="M711.710196 249.301199c-19.198737-11.087447-48.289414-12.293043-64.920585-2.693674L11.223644 613.552592c-16.626126 9.599369-14.537772 26.397002 4.660965 37.48445l626.244037 361.557718c19.203781 11.087447 48.294458 12.293043 64.920585 2.693674l635.565967-366.945067c16.631171-9.599369 14.542816-26.397002-4.660965-37.484449L711.710196 249.301199z" fill="#4467AE" p-id="2312"></path><path d="M711.710196 9.170701c-19.198737-11.082403-48.289414-12.293043-64.920585-2.68863L11.223644 373.427138c-16.626126 9.599369-14.537772 26.391958 4.660965 37.479405l626.244037 361.562763c19.203781 11.087447 48.294458 12.293043 64.920585 2.693674l635.565967-366.945067c16.631171-9.604413 14.542816-26.397002-4.660965-37.48445L711.710196 9.170701z" fill="#6D8ACA" p-id="2313"></path><path d="M296.203321 413.751548l-60.274753 34.800863 12.424196-99.908088 173.04085-7.173044-60.274753 34.800864 187.139765 108.0446-64.915541 37.479405L296.203321 413.751548zM533.21642 276.913886l-60.274752 34.800864 12.424196-99.908089 173.040849-7.173043-60.274752 34.800863 187.139765 108.0446-64.915541 37.474361-187.139765-108.039556z" fill="#FFFFFF" p-id="2314"></path><path d="M1057.640566 367.888459l60.274752-34.800864-12.424195 99.908089-173.045895 7.173043 60.279797-34.800863-187.139764-108.0446 64.91554-37.479405 187.139765 108.0446zM820.622422 504.731164l60.279797-34.800863-12.424196 99.908089-173.045894 7.173043 60.279797-34.805908-187.139765-108.039556 64.91554-37.479405 187.134721 108.0446z" fill="#FFFFFF" p-id="2315"></path></svg>