<?xml version="1.0" standalone="no"?><!DOCTYPE svg PUBLIC "-//W3C//DTD SVG 1.1//EN" "http://www.w3.org/Graphics/SVG/1.1/DTD/svg11.dtd"><svg t="1700125774050" class="icon" viewBox="0 0 1024 1024" version="1.1" xmlns="http://www.w3.org/2000/svg" p-id="11289" xmlns:xlink="http://www.w3.org/1999/xlink" width="200" height="200"><path d="M802.084571 641.462857a161.426286 161.426286 0 0 1-12.726857 3.657143v-7.314286l12.726857 3.657143z m145.554286-116.150857c-22.308571 45.641143-52.370286 75.629714-86.820571 94.134857l-13.824 2.852572c-134.875429-14.921143-220.306286-55.369143-254.025143-120.246858-32.329143-62.171429-5.851429-129.974857 2.340571-148.041142 287.232-63.268571 324.022857-102.912 324.022857-130.413715a28.525714 28.525714 0 0 0-8.118857-19.382857c144.676571 57.270857 36.425143 321.097143 36.425143 321.097143z m-85.504-321.536a228.790857 228.790857 0 0 0-37.156571-7.094857c-14.921143-1.462857-46.811429 1.828571-71.972572 7.533714 0 0 59.757714 13.312 10.971429 36.571429a383.561143 383.561143 0 0 0-37.302857-87.990857C665.673143 53.686857 545.865143 0.512 421.741714 0.512 209.554286 0.512 36.717714 175.177143 36.717714 389.997714c0 116.150857 50.102857 224.182857 137.728 298.569143V928.914286l426.934857 94.72v-181.248h99.986286c48.493714 0 87.990857-40.009143 87.990857-89.161143V637.805714a586.459429 586.459429 0 0 1-51.565714-11.702857c-82.944-22.966857-138.459429-60.854857-165.522286-113.225143-43.300571-83.529143 2.852571-171.154286 4.827429-174.811428l2.56-4.681143 5.12-1.170286c60.269714-13.165714 112.274286-25.892571 155.794286-38.253714 9.069714-2.56 17.846857-5.12 26.185142-7.68 29.257143-8.850286 53.979429-17.481143 73.874286-25.746286 54.784-22.893714 55.369143-36.278857 55.369143-36.790857 0-5.632-16.091429-14.409143-33.865143-19.894857zM89.746286 415.012571C89.088 406.674286 88.283429 398.409143 88.283429 390.070857c0-8.996571 0.731429-17.700571 1.316571-26.404571L95.817143 324.754286c46.592 16.310857 167.936 55.734857 277.942857 64.512-8.118857 17.92-12.580571 37.961143-12.580571 58.953143 0 32.914286 10.971429 63.268571 29.549714 87.478857-60.854857-10.093714-120.685714-27.062857-171.300572-44.105143a1422.043429 1422.043429 0 0 1-125.805714-49.152l-3.876571-27.428572z m648.045714 229.083429V753.371429a36.717714 36.717714 0 0 1-36.425143 36.864H549.814857v168.594285l-323.730286-71.826285V663.478857l-9.874285-7.826286A336.310857 336.310857 0 0 1 106.276571 499.419429c76.8 32.329143 239.908571 92.672 387.364572 92.672 11.483429 0 22.966857-0.365714 34.230857-1.170286h12.068571c55.881143 25.088 128 50.102857 197.851429 53.174857z m-155.062857-358.765714c-16.749714 2.779429-44.617143 9.508571-74.971429 20.187428h-5.632c-37.156571 0-70.948571 14.628571-96.182857 38.4-111.542857-2.413714-253.44-49.225143-298.642286-65.097143C152.868571 147.382857 276.48 52.662857 421.814857 52.662857c108.982857 0 219.867429 44.397714 266.605714 135.533714 7.314286 14.336 16.896 44.178286 28.306286 69.193143-30.646857 8.484571-73.874286 17.846857-133.997714 27.940572z" fill="#1296db" p-id="11290"></path></svg>